Coordinates
version=1
nRows=19
nColumns=24
inDegrees=yes

Units are S.I. units (second, meters, Newtons, ...)
Angles are in degrees.

endheader
time	pelvis_tilt	pelvis_list	pelvis_rotation	pelvis_tx	pelvis_ty	pelvis_tz	hip_flexion_r	hip_adduction_r	hip_rotation_r	knee_angle_r	ankle_angle_r	subtalar_angle_r	mtp_angle_r	hip_flexion_l	hip_adduction_l	hip_rotation_l	knee_angle_l	ankle_angle_l	subtalar_angle_l	mtp_angle_l	lumbar_extension	lumbar_bending	lumbar_rotation
      6.19000000	     -8.56733759	     -1.76573136	     11.76914461	     -1.19718697	     -0.02211743	     -0.31721017	     31.57479677	     -3.21098935	     -9.84759134	     -9.35586178	     -1.20019662	      5.89058759	     11.18090045	     -4.96325151	      0.13226786	     19.28013647	    -16.40956020	      6.17212737	      1.25548764	     14.57566793	      6.37419309	     -1.09912199	    -11.34256184
      6.19500000	     -8.68161908	     -1.88976177	     11.88693623	     -1.19061717	     -0.02284935	     -0.31672219	     31.64278457	     -3.13555935	    -10.15194967	     -9.94212553	     -1.68935722	      5.81344101	     11.73038429	     -4.93685935	     -0.09331278	     19.04329176	    -16.90150634	      5.90421287	      1.87041578	     15.14048830	      6.72588835	     -0.99108338	    -11.39083086
      6.20000000	     -8.77056180	     -1.95846728	     11.88766349	     -1.18405885	     -0.02350318	     -0.31607446	     31.67882341	     -3.03924710	    -10.27425226	    -10.41730100	     -2.66166402	      5.48827717	     13.35264881	     -4.96619256	     -0.26179998	     18.70404831	    -17.32106986	      5.25820024	      2.18973684	     16.33643975	      7.03113554	     -0.92534133	    -11.30659496
      6.20500000	     -8.83756637	     -2.20135386	     11.95388193	     -1.17740942	     -0.02404075	     -0.31552995	     31.71882608	     -2.80825716	    -10.59643143	    -10.97607909	     -3.15372394	      5.43885966	     13.45185622	     -4.97130029	     -0.61247139	     18.56008931	    -17.83440860	      4.98503043	      2.70454518	     16.51549651	      7.36864858	     -0.67612488	    -11.32839026
      6.21000000	     -8.93410458	     -2.41444231	     11.98077393	     -1.17095099	     -0.02455895	     -0.31484196	     31.81586412	     -2.57655684	    -10.71157531	    -11.51862400	     -3.81037706	      5.21774907	     13.81190170	     -4.84905363	     -0.94177973	     18.07545851	    -18.46721551	      4.68104995	      3.56525934	     17.10875673	      7.69644528	     -0.45968619	    -11.26407371
      6.21500000	     -9.03051736	     -2.70050432	     11.94297425	     -1.16438689	     -0.02496619	     -0.31409153	     31.91958149	     -2.22513172	    -10.70520925	    -12.02580947	     -4.57714104	      4.90012832	     14.19553916	     -4.74125794	     -1.34886419	     17.59855973	    -19.04464663	      4.21813876	      4.24976458	     17.81614699	      8.05912903	     -0.15489175	    -11.18089424
      6.22000000	     -9.10986122	     -3.00032740	     11.84886522	     -1.15782151	     -0.02525302	     -0.31325271	     32.02488023	     -1.81200118	    -10.58597190	    -12.54560231	     -5.34729332	      4.55283000	     14.54216756	     -4.64399979	     -1.77836904	     17.06543417	    -19.61762725	      3.63958004	      4.92840953	     18.61851887	      8.40280669	      0.17330515	    -11.08526447
      6.22500000	     -9.17676968	     -3.32801952	     11.72939466	     -1.15125584	     -0.02542858	     -0.31243000	     32.11452495	     -1.33572337	    -10.26614370	    -13.04629492	     -6.20546021	      4.04698901	     14.99679108	     -4.54967103	     -2.23259799	     16.56296627	    -20.16392069	      2.77809244	      5.36842166	     19.91024235	      8.74151266	      0.55436092	    -10.91419433
      6.23000000	     -9.21010290	     -3.70540378	     11.63380719	     -1.14476936	     -0.02552982	     -0.31164158	     32.21202031	     -0.82337279	    -10.01530713	    -13.65840801	     -6.71394975	      3.84677908	     14.99234514	     -4.38980995	     -2.75430673	     15.91243629	    -20.90187896	      2.25250734	      6.26419174	     20.46813461	      9.03744612	      0.99271180	    -10.81371325
      6.23500000	     -9.25720291	     -4.08129326	     11.46909193	     -1.13823141	     -0.02556174	     -0.31072867	     32.32255887	     -0.23672201	     -9.47974635	    -14.27025332	     -7.28508647	      3.36239983	     14.82367960	     -4.21353383	     -3.28527979	     15.17118569	    -21.62411010	      1.53515763	      7.13535458	     21.29376966	      9.35277436	      1.43535385	    -10.64527916
      6.24000000	     -9.27934388	     -4.45454585	     11.28646994	     -1.13167028	     -0.02550090	     -0.30979526	     32.40536553	      0.38088209	     -8.86205067	    -14.90243868	     -7.75714081	      2.85349830	     14.52917177	     -4.04401918	     -3.82887634	     14.39170605	    -22.36321880	      0.67467025	      8.01321919	     22.29408517	      9.64068371	      1.88518989	    -10.47018790
      6.24500000	     -9.28067364	     -4.84273872	     11.10747514	     -1.12508588	     -0.02533070	     -0.30888967	     32.45599717	      1.03954535	     -8.16026703	    -15.54147127	     -8.16058787	      2.21682159	     13.86042192	     -3.88991510	     -4.39586590	     13.65412611	    -23.05486971	     -0.52358270	      8.63446174	     23.88250999	      9.91127504	      2.36313929	    -10.29091363
      6.25000000	     -9.25224262	     -5.17098931	     10.92395498	     -1.11844883	     -0.02512933	     -0.30795273	     32.45977351	      1.64912436	     -7.48319491	    -16.20056975	     -8.32372761	      1.78075974	     13.43278173	     -3.72249606	     -4.93410055	     12.77166745	    -23.87753211	     -1.51818351	      9.73979190	     24.78968547	     10.14449797	      2.77341498	    -10.14364406
      6.25500000	     -9.21588335	     -5.54012688	     10.70724582	     -1.11175134	     -0.02484696	     -0.30702953	     32.43140686	      2.34186807	     -6.75187399	    -16.82267001	     -8.48645503	      1.14672437	     12.53217365	     -3.56338870	     -5.51638842	     11.89854202	    -24.64794548	     -2.87153487	     10.49923346	     26.26549841	     10.38308557	      3.25089079	     -9.94391556
      6.26000000	     -9.15925816	     -5.83851324	     10.52432008	     -1.10512502	     -0.02454881	     -0.30610917	     32.35428703	      2.95513552	     -6.02675469	    -17.43280008	     -8.52404035	      0.58651348	     11.89588165	     -3.36732312	     -6.04876306	     11.00368832	    -25.54101329	     -4.12552723	     11.56021040	     27.31043344	     10.57013740	      3.64230731	     -9.80817797
      6.26500000	     -9.08417499	     -6.10665150	     10.33526836	     -1.09848263	     -0.02418280	     -0.30522412	     32.21657820	      3.54913944	     -5.34239161	    -17.99245324	     -8.49492837	      0.01052793	     11.19706465	     -3.18103548	     -6.55835988	     10.12267391	    -26.43378517	     -5.57159312	     12.52753192	     28.45647840	     10.73209009	      4.01526318	     -9.66025660
      6.27000000	     -9.00569702	     -6.34603476	     10.15730832	     -1.09182795	     -0.02379383	     -0.30434532	     32.03070409	      4.11131176	     -4.72237660	    -18.49350039	     -8.37971806	     -0.53975502	     10.55666812	     -2.97224626	     -7.04872076	      9.26529833	    -27.36099572	     -7.12162818	     13.47510390	     29.53957512	     10.88790910	      4.35221871	     -9.52651005
      6.27500000	     -8.93125960	     -6.55419122	      9.99271984	     -1.08519260	     -0.02338282	     -0.30347680	     31.79798913	      4.63606134	     -4.14855694	    -18.91604369	     -8.22722746	     -1.09044571	     10.02296670	     -2.73199310	     -7.50953780	      8.47270909	    -28.32549647	     -8.74985347	     14.38848815	     30.48378119	     11.03991427	      4.64693308	     -9.41762681
      6.28000000	     -8.85853253	     -6.72703425	      9.84492358	     -1.07863969	     -0.02294477	     -0.30264032	     31.52231489	      5.11030026	     -3.64405124	    -19.26573670	     -8.02546168	     -1.59235650	      9.58854780	     -2.45455089	     -7.93228700	      7.74979841	    -29.32938515	    -10.46728022	     15.23536750	     31.34602121	     11.17305939	      4.90355401	     -9.32034574
